<svg id="ebay" xmlns="http://www.w3.org/2000/svg" width="90" height="36.062" viewBox="0 0 90 36.062">
  <path id="Path_235" data-name="Path 235" d="M11.738,26.309C5.39,26.309.1,29,.1,37.127c0,6.437,3.557,10.49,11.8,10.49,9.7,0,10.326-6.392,10.326-6.392h-4.7s-1.008,3.442-5.911,3.442c-3.993,0-6.865-2.7-6.865-6.478H22.72V35.816c0-3.74-2.375-9.507-10.982-9.507Zm-.164,3.032c3.8,0,6.392,2.329,6.392,5.819H4.853C4.853,31.455,8.236,29.341,11.574,29.341Z" transform="translate(-0.1 -18.441)" fill="#e53238"/>
  <path id="Path_236" data-name="Path 236" d="M75.2.1V25.2c0,1.424-.1,3.425-.1,3.425h4.485s.161-1.436.161-2.75c0,0,2.216,3.467,8.241,3.467,6.344,0,10.654-4.405,10.654-10.716C98.64,12.751,94.681,8.029,88,8.029c-6.26,0-8.206,3.381-8.206,3.381V.1ZM86.838,11.133c4.308,0,7.048,3.2,7.048,7.489,0,4.6-3.164,7.612-7.017,7.612-4.6,0-7.079-3.591-7.079-7.571,0-3.709,2.226-7.53,7.048-7.53Z" transform="translate(-52.584 -0.1)" fill="#0064d2"/>
  <path id="Path_237" data-name="Path 237" d="M163.517,26.309c-9.55,0-10.162,5.229-10.162,6.065h4.753s.249-3.053,5.081-3.053c3.14,0,5.573,1.437,5.573,4.2V34.5h-5.573c-7.4,0-11.31,2.164-11.31,6.557,0,4.322,3.614,6.674,8.5,6.674,6.656,0,8.8-3.678,8.8-3.678,0,1.463.113,2.9.113,2.9h4.226s-.164-1.787-.164-2.93V34.151C173.351,27.672,168.126,26.309,163.517,26.309Zm5.245,11.146v1.311c0,1.71-1.056,5.962-7.268,5.962-3.4,0-4.861-1.7-4.861-3.668,0-3.583,4.912-3.606,12.129-3.606Z" transform="translate(-106.315 -18.441)" fill="#f5af02"/>
  <path id="Path_238" data-name="Path 238" d="M214.879,29.041h5.347L227.9,44.417l7.657-15.376H240.4L226.455,56.414h-5.081l4.024-7.631L214.879,29.041Z" transform="translate(-150.402 -20.353)" fill="#86b817"/>
</svg>
