<svg id="whatsapp" xmlns="http://www.w3.org/2000/svg" width="50" height="50" viewBox="0 0 50 50">
  <path id="Path_8" data-name="Path 8" d="M25.006,0h-.013A24.984,24.984,0,0,0,4.759,39.653L1.644,48.941l9.609-3.072A25,25,0,1,0,25.006,0Z" fill="#1bb67f"/>
  <path id="Path_9" data-name="Path 9" d="M136.342,140.957c-.6,1.7-3,3.116-4.906,3.528-1.306.278-3.013.5-8.756-1.881-7.347-3.044-12.078-10.509-12.447-10.994-.353-.484-2.969-3.953-2.969-7.541a7.981,7.981,0,0,1,2.556-6.084,3.632,3.632,0,0,1,2.556-.9c.309,0,.588.016.838.028.734.031,1.1.075,1.587,1.234.6,1.453,2.072,5.041,2.247,5.409a1.488,1.488,0,0,1,.106,1.353,4.32,4.32,0,0,1-.809,1.147c-.369.425-.719.75-1.088,1.206-.338.4-.719.822-.294,1.556a22.19,22.19,0,0,0,4.056,5.041,18.38,18.38,0,0,0,5.863,3.616,1.581,1.581,0,0,0,1.762-.278,30.248,30.248,0,0,0,1.953-2.588,1.4,1.4,0,0,1,1.794-.544c.675.234,4.247,2,4.981,2.366s1.219.544,1.4.853A6.226,6.226,0,0,1,136.342,140.957Z" transform="translate(-96.789 -105.654)" fill="#fff"/>
</svg>
