<svg id="zoom-in" xmlns="http://www.w3.org/2000/svg" width="23.926" height="23.926" viewBox="0 0 23.926 23.926">
  <path id="Path_252" data-name="Path 252" d="M24.68,23.548,19.22,18.1A10.363,10.363,0,1,0,18.1,19.22l5.452,5.46a.8.8,0,1,0,1.132-1.132ZM2.592,11.36a8.768,8.768,0,1,1,8.768,8.768A8.768,8.768,0,0,1,2.592,11.36Z" transform="translate(-0.99 -0.99)" fill="#d1d1d1"/>
  <path id="Path_253" data-name="Path 253" d="M17.363,11.783H7.8a.8.8,0,1,0,0,1.594h9.565a.8.8,0,1,0,0-1.594Z" transform="translate(-2.209 -2.209)" fill="#d1d1d1"/>
</svg>
