<svg id="Layer_2" data-name="Layer 2" xmlns="http://www.w3.org/2000/svg" width="50" height="50" viewBox="0 0 50 50">
  <g id="Icons">
    <g id="Facebook_Icon_02" data-name="Facebook Icon 02">
      <circle id="Background" cx="25" cy="25" r="25" fill="#1bb67f"/>
      <path id="F" d="M117.156,68.51h-3.877c-4.357,0-7.172,2.889-7.172,7.357v3.393h-3.9a.608.608,0,0,0-.608.609V84.79a.608.608,0,0,0,.608.608h3.9V97.8a.608.608,0,0,0,.608.608h5.09a.608.608,0,0,0,.609-.608V85.4h4.557a.61.61,0,0,0,.611-.608V79.865a.613.613,0,0,0-.611-.611h-4.559V76.378c0-1.383.334-2.086,2.129-2.086h2.613a.611.611,0,0,0,.608-.609V69.118a.609.609,0,0,0-.608-.608Z" transform="translate(-84.634 -57.07)" fill="#fff"/>
    </g>
  </g>
</svg>
