<svg id="Layer_2" data-name="Layer 2" xmlns="http://www.w3.org/2000/svg" width="50" height="50" viewBox="0 0 50 50">
  <g id="Icons">
    <g id="Instagram_Icon" data-name="Instagram Icon">
      <circle id="Background" cx="25" cy="25" r="25" fill="#1bb67f"/>
      <g id="Instagram" transform="translate(8.996 9)">
        <path id="Path_4" data-name="Path 4" d="M53.98,69.978V62.052A8,8,0,0,1,60.747,54.1a9.3,9.3,0,0,1,1.5-.092Q70.147,54,78.028,54a8.01,8.01,0,0,1,7.952,7.972V78a8,8,0,0,1-8,8H61.913a7.956,7.956,0,0,1-7.857-7.062c-.123-1.238-.067-2.5-.073-3.745-.012-1.737,0-3.475,0-5.212Zm29.708.053V62a5.677,5.677,0,0,0-5.708-5.71H61.988a5.667,5.667,0,0,0-5.71,5.718v16A5.667,5.667,0,0,0,62,83.718q7.978.01,15.957,0A5.68,5.68,0,0,0,83.7,77.963q0-3.963-.007-7.932Z" transform="translate(-53.976 -54)" fill="#fff"/>
        <path id="Path_5" data-name="Path 5" d="M110.032,102a8,8,0,1,1-8.022,8A8,8,0,0,1,110.032,102Zm5.692,8a5.713,5.713,0,1,0-5.714,5.713A5.713,5.713,0,0,0,115.723,110Z" transform="translate(-94.004 -94)" fill="#fff"/>
        <path id="Path_6" data-name="Path 6" d="M195.7,83.729a2.287,2.287,0,1,1-2.262-2.29A2.287,2.287,0,0,1,195.7,83.729Z" transform="translate(-168.271 -76.866)" fill="#fff"/>
      </g>
    </g>
  </g>
</svg>
