<svg id="Component_8_1" data-name="Component 8 – 1" xmlns="http://www.w3.org/2000/svg" width="167" height="35.01" viewBox="0 0 167 35.01">
  <text id="Platform_Logo" data-name="Platform Logo" transform="translate(41 23.013)" fill="#fff" font-size="18" font-family="Poppins-Medium, Poppins" font-weight="500"><tspan x="0" y="0">Platform Logo</tspan></text>
  <g id="card" transform="translate(-68.856 0)">
    <path id="Path_1" data-name="Path 1" d="M79.3,253.517a3.1,3.1,0,0,1-2.176-.876l-5.434-5.28-2.533,2.461a.977.977,0,0,0,0,1.409l9.417,9.151a1.047,1.047,0,0,0,1.45,0l14.125-13.726a.977.977,0,0,0,0-1.409l-2.533-2.461-10.142,9.856A3.1,3.1,0,0,1,79.3,253.517Z" transform="translate(0 -225.664)" fill="#fff"/>
    <path id="Path_2" data-name="Path 2" d="M84.732.3a1.018,1.018,0,0,0-1.451,0L69.156,14.575a1.044,1.044,0,0,0,0,1.466l9.417,9.515a1.018,1.018,0,0,0,1.45,0L94.149,11.283a1.044,1.044,0,0,0,0-1.466Z" transform="translate(0 0)" fill="#fff"/>
  </g>
</svg>
