<svg id="wechat" xmlns="http://www.w3.org/2000/svg" width="50" height="50" viewBox="0 0 50 50">
  <path id="Path_224" data-name="Path 224" d="M25,0A25,25,0,1,1,0,25,25,25,0,0,1,25,0Z" fill="#1bb67f"/>
  <g id="Group_7" data-name="Group 7" transform="translate(8.947 11.535)">
    <path id="Path_11" data-name="Path 11" d="M106.437,128.78a11.49,11.49,0,0,1,7.48-2.653q.488,0,.969.038c-1.076-4.589-5.824-8.047-11.518-8.047-6.488,0-11.747,4.489-11.747,10.026a9.39,9.39,0,0,0,3.73,7.327l-.956,4.3,4.213-2.462a13.436,13.436,0,0,0,4.76.858c.137,0,.274,0,.41-.007a8.113,8.113,0,0,1-.507-2.826A8.577,8.577,0,0,1,106.437,128.78ZM107.5,122.8a1.5,1.5,0,1,1-1.5,1.5A1.5,1.5,0,0,1,107.5,122.8ZM98.973,125.8a1.5,1.5,0,1,1,1.5-1.5A1.5,1.5,0,0,1,98.973,125.8Z" transform="translate(-91.621 -118.118)" fill="#fff"/>
    <path id="Path_12" data-name="Path 12" d="M229.293,208.706c-5.418,0-9.809,3.748-9.809,8.372s4.392,8.372,9.809,8.372a11.218,11.218,0,0,0,3.975-.716l3.518,2.056-.8-3.593a7.841,7.841,0,0,0,3.115-6.118C239.1,212.454,234.711,208.706,229.293,208.706Zm-3.447,3.907a1.256,1.256,0,1,1-1.256,1.256A1.256,1.256,0,0,1,225.847,212.613Zm7.116,2.512a1.256,1.256,0,1,1,1.256-1.256A1.256,1.256,0,0,1,232.963,215.125Z" transform="translate(-206.997 -199.86)" fill="#fff"/>
  </g>
</svg>
